<svg width="266" height="479" viewBox="0 0 266 479" fill="none" xmlns="http://www.w3.org/2000/svg">
<path d="M239.956 478.463C229.8 477.208 222.171 468.677 222.139 458.549C222.139 458.549 201.188 448.195 206.259 394.399C211.329 340.603 191.252 314.152 191.252 314.152C167.448 280.875 151.778 242.582 145.477 202.291C136.997 198.715 117.132 212.918 117.132 212.918C80.9626 229.964 63.7359 204.745 58.6105 194.866C61.4763 196.899 69.1369 196.3 89.8677 180.227C124.038 153.676 145.681 167.941 145.681 167.941C166.687 135.608 159.672 129.765 183.371 95.7735C207.069 61.7819 280.961 90.2656 281 90.2656V479L239.956 478.463ZM235.516 269.62C235.634 269.184 245.05 234.608 242.554 226.341C242.554 226.341 234.051 255.37 231.43 252.316C231.43 252.316 174.632 238.752 168.971 230.572C168.971 230.572 182.623 263.847 201.464 268.926C208.148 267.47 214.959 266.659 221.8 266.511C226.587 266.13 231.375 267.215 235.516 269.62ZM56.8074 191.173C57.3076 192.457 57.8888 193.709 58.5474 194.921C57.9871 194.469 57.5389 193.897 57.2373 193.247C56.9356 192.598 56.7886 191.888 56.8074 191.173ZM37.1241 124.787C-27.5472 75.5874 11.9296 0 11.9296 0C17.7007 37.9261 29.0383 64.4698 59.5946 83.4876C92.513 103.938 165.727 101.749 165.727 101.749L145.421 146.625C137.601 147.764 129.707 148.337 121.801 148.339C91.9223 148.339 62.618 140.174 37.1241 124.756V124.787Z" fill="white" fill-opacity="0.09"/>
</svg>
